<?xml version="1.0" encoding="UTF-8" standalone="no"?>
<!DOCTYPE svg PUBLIC "-//W3C//DTD SVG 1.1//EN"
 "http://www.w3.org/Graphics/SVG/1.1/DTD/svg11.dtd">
<!-- Generated by graphviz version 2.38.0 (20140413.2041)
 -->
<!-- Title: mxnet_converted_model Pages: 1 -->
<svg width="1401pt" height="1482pt"
 viewBox="0.00 0.00 1400.50 1482.00" xmlns="http://www.w3.org/2000/svg" xmlns:xlink="http://www.w3.org/1999/xlink">
<g id="graph0" class="graph" transform="scale(1 1) rotate(0) translate(4 1478)">
<title>mxnet_converted_model</title>
<polygon fill="white" stroke="none" points="-4,4 -4,-1478 1396.5,-1478 1396.5,4 -4,4"/>
<!-- batchnorm0/BatchNormalization (op#0)\n input0 data\n input1 batchnorm0_gamma\n input2 batchnorm0_beta\n input3 batchnorm0_moving_mean\n input4 batchnorm0_moving_var\n output0 batchnorm0 -->
<g id="node1" class="node"><title>batchnorm0/BatchNormalization (op#0)\n input0 data\n input1 batchnorm0_gamma\n input2 batchnorm0_beta\n input3 batchnorm0_moving_mean\n input4 batchnorm0_moving_var\n output0 batchnorm0</title>
<g id="a_node1"><a xlink:href="javascript:alert('')" xlink:title="batchnorm0/BatchNormalization (op#0)\n input0 data\n input1 batchnorm0_gamma\n input2 batchnorm0_beta\n input3 batchnorm0_moving_mean\n input4 batchnorm0_moving_var\n output0 batchnorm0">
<polygon fill="#0f9d58" stroke="#0f9d58" points="936.5,-1402 697.5,-1402 697.5,-1289 936.5,-1289 936.5,-1402"/>
<text text-anchor="middle" x="817" y="-1386.8" font-family="Times New Roman,serif" font-size="14.00" fill="#ffffff">batchnorm0/BatchNormalization (op#0)</text>
<text text-anchor="middle" x="817" y="-1371.8" font-family="Times New Roman,serif" font-size="14.00" fill="#ffffff"> input0 data</text>
<text text-anchor="middle" x="817" y="-1356.8" font-family="Times New Roman,serif" font-size="14.00" fill="#ffffff"> input1 batchnorm0_gamma</text>
<text text-anchor="middle" x="817" y="-1341.8" font-family="Times New Roman,serif" font-size="14.00" fill="#ffffff"> input2 batchnorm0_beta</text>
<text text-anchor="middle" x="817" y="-1326.8" font-family="Times New Roman,serif" font-size="14.00" fill="#ffffff"> input3 batchnorm0_moving_mean</text>
<text text-anchor="middle" x="817" y="-1311.8" font-family="Times New Roman,serif" font-size="14.00" fill="#ffffff"> input4 batchnorm0_moving_var</text>
<text text-anchor="middle" x="817" y="-1296.8" font-family="Times New Roman,serif" font-size="14.00" fill="#ffffff"> output0 batchnorm0</text>
</a>
</g>
</g>
<!-- batchnorm00 -->
<g id="node2" class="node"><title>batchnorm00</title>
<polygon fill="none" stroke="black" points="875.5,-1227.54 875.5,-1242.46 841.231,-1253 792.769,-1253 758.5,-1242.46 758.5,-1227.54 792.769,-1217 841.231,-1217 875.5,-1227.54"/>
<text text-anchor="middle" x="817" y="-1231.3" font-family="Times New Roman,serif" font-size="14.00">batchnorm0</text>
</g>
<!-- batchnorm0/BatchNormalization (op#0)\n input0 data\n input1 batchnorm0_gamma\n input2 batchnorm0_beta\n input3 batchnorm0_moving_mean\n input4 batchnorm0_moving_var\n output0 batchnorm0&#45;&gt;batchnorm00 -->
<g id="edge1" class="edge"><title>batchnorm0/BatchNormalization (op#0)\n input0 data\n input1 batchnorm0_gamma\n input2 batchnorm0_beta\n input3 batchnorm0_moving_mean\n input4 batchnorm0_moving_var\n output0 batchnorm0&#45;&gt;batchnorm00</title>
<path fill="none" stroke="black" d="M817,-1288.98C817,-1280.19 817,-1271.45 817,-1263.67"/>
<polygon fill="black" stroke="black" points="820.5,-1263.42 817,-1253.42 813.5,-1263.42 820.5,-1263.42"/>
</g>
<!-- fullyconnected0/Gemm (op#1)\n input0 batchnorm0\n input1 fullyconnected0_weight\n input2 fullyconnected0_bias\n output0 fullyconnected0 -->
<g id="node8" class="node"><title>fullyconnected0/Gemm (op#1)\n input0 batchnorm0\n input1 fullyconnected0_weight\n input2 fullyconnected0_bias\n output0 fullyconnected0</title>
<g id="a_node8"><a xlink:href="javascript:alert('')" xlink:title="fullyconnected0/Gemm (op#1)\n input0 batchnorm0\n input1 fullyconnected0_weight\n input2 fullyconnected0_bias\n output0 fullyconnected0">
<polygon fill="#0f9d58" stroke="#0f9d58" points="740.5,-1181 549.5,-1181 549.5,-1098 740.5,-1098 740.5,-1181"/>
<text text-anchor="middle" x="645" y="-1165.8" font-family="Times New Roman,serif" font-size="14.00" fill="#ffffff">fullyconnected0/Gemm (op#1)</text>
<text text-anchor="middle" x="645" y="-1150.8" font-family="Times New Roman,serif" font-size="14.00" fill="#ffffff"> input0 batchnorm0</text>
<text text-anchor="middle" x="645" y="-1135.8" font-family="Times New Roman,serif" font-size="14.00" fill="#ffffff"> input1 fullyconnected0_weight</text>
<text text-anchor="middle" x="645" y="-1120.8" font-family="Times New Roman,serif" font-size="14.00" fill="#ffffff"> input2 fullyconnected0_bias</text>
<text text-anchor="middle" x="645" y="-1105.8" font-family="Times New Roman,serif" font-size="14.00" fill="#ffffff"> output0 fullyconnected0</text>
</a>
</g>
</g>
<!-- batchnorm00&#45;&gt;fullyconnected0/Gemm (op#1)\n input0 batchnorm0\n input1 fullyconnected0_weight\n input2 fullyconnected0_bias\n output0 fullyconnected0 -->
<g id="edge7" class="edge"><title>batchnorm00&#45;&gt;fullyconnected0/Gemm (op#1)\n input0 batchnorm0\n input1 fullyconnected0_weight\n input2 fullyconnected0_bias\n output0 fullyconnected0</title>
<path fill="none" stroke="black" d="M788.211,-1218.35C771.653,-1209.35 749.916,-1197.53 728.396,-1185.83"/>
<polygon fill="black" stroke="black" points="729.986,-1182.71 719.528,-1181.01 726.642,-1188.86 729.986,-1182.71"/>
</g>
<!-- data0 -->
<g id="node3" class="node"><title>data0</title>
<polygon fill="none" stroke="black" points="517.28,-1448.54 517.28,-1463.46 500.714,-1474 477.286,-1474 460.72,-1463.46 460.72,-1448.54 477.286,-1438 500.714,-1438 517.28,-1448.54"/>
<text text-anchor="middle" x="489" y="-1452.3" font-family="Times New Roman,serif" font-size="14.00">data</text>
</g>
<!-- data0&#45;&gt;batchnorm0/BatchNormalization (op#0)\n input0 data\n input1 batchnorm0_gamma\n input2 batchnorm0_beta\n input3 batchnorm0_moving_mean\n input4 batchnorm0_moving_var\n output0 batchnorm0 -->
<g id="edge2" class="edge"><title>data0&#45;&gt;batchnorm0/BatchNormalization (op#0)\n input0 data\n input1 batchnorm0_gamma\n input2 batchnorm0_beta\n input3 batchnorm0_moving_mean\n input4 batchnorm0_moving_var\n output0 batchnorm0</title>
<path fill="none" stroke="black" d="M511.111,-1444.29C515.967,-1442.09 521.118,-1439.88 526,-1438 578.115,-1417.93 636.673,-1398.86 687.523,-1383.39"/>
<polygon fill="black" stroke="black" points="688.699,-1386.69 697.255,-1380.44 686.67,-1379.99 688.699,-1386.69"/>
</g>
<!-- batchnorm0_gamma0 -->
<g id="node4" class="node"><title>batchnorm0_gamma0</title>
<polygon fill="none" stroke="black" points="719.315,-1448.54 719.315,-1463.46 665.238,-1474 588.762,-1474 534.685,-1463.46 534.685,-1448.54 588.762,-1438 665.238,-1438 719.315,-1448.54"/>
<text text-anchor="middle" x="627" y="-1452.3" font-family="Times New Roman,serif" font-size="14.00">batchnorm0_gamma</text>
</g>
<!-- batchnorm0_gamma0&#45;&gt;batchnorm0/BatchNormalization (op#0)\n input0 data\n input1 batchnorm0_gamma\n input2 batchnorm0_beta\n input3 batchnorm0_moving_mean\n input4 batchnorm0_moving_var\n output0 batchnorm0 -->
<g id="edge3" class="edge"><title>batchnorm0_gamma0&#45;&gt;batchnorm0/BatchNormalization (op#0)\n input0 data\n input1 batchnorm0_gamma\n input2 batchnorm0_beta\n input3 batchnorm0_moving_mean\n input4 batchnorm0_moving_var\n output0 batchnorm0</title>
<path fill="none" stroke="black" d="M657.106,-1437.81C672.055,-1429.27 691.11,-1418.39 710.815,-1407.14"/>
<polygon fill="black" stroke="black" points="712.647,-1410.12 719.595,-1402.12 709.176,-1404.04 712.647,-1410.12"/>
</g>
<!-- batchnorm0_beta0 -->
<g id="node5" class="node"><title>batchnorm0_beta0</title>
<polygon fill="none" stroke="black" points="897.397,-1448.54 897.397,-1463.46 850.301,-1474 783.699,-1474 736.603,-1463.46 736.603,-1448.54 783.699,-1438 850.301,-1438 897.397,-1448.54"/>
<text text-anchor="middle" x="817" y="-1452.3" font-family="Times New Roman,serif" font-size="14.00">batchnorm0_beta</text>
</g>
<!-- batchnorm0_beta0&#45;&gt;batchnorm0/BatchNormalization (op#0)\n input0 data\n input1 batchnorm0_gamma\n input2 batchnorm0_beta\n input3 batchnorm0_moving_mean\n input4 batchnorm0_moving_var\n output0 batchnorm0 -->
<g id="edge4" class="edge"><title>batchnorm0_beta0&#45;&gt;batchnorm0/BatchNormalization (op#0)\n input0 data\n input1 batchnorm0_gamma\n input2 batchnorm0_beta\n input3 batchnorm0_moving_mean\n input4 batchnorm0_moving_var\n output0 batchnorm0</title>
<path fill="none" stroke="black" d="M817,-1437.57C817,-1430.44 817,-1421.71 817,-1412.5"/>
<polygon fill="black" stroke="black" points="820.5,-1412.38 817,-1402.38 813.5,-1412.38 820.5,-1412.38"/>
</g>
<!-- batchnorm0_moving_mean0 -->
<g id="node6" class="node"><title>batchnorm0_moving_mean0</title>
<polygon fill="none" stroke="black" points="1153,-1448.54 1153,-1463.46 1083.29,-1474 984.709,-1474 915,-1463.46 915,-1448.54 984.709,-1438 1083.29,-1438 1153,-1448.54"/>
<text text-anchor="middle" x="1034" y="-1452.3" font-family="Times New Roman,serif" font-size="14.00">batchnorm0_moving_mean</text>
</g>
<!-- batchnorm0_moving_mean0&#45;&gt;batchnorm0/BatchNormalization (op#0)\n input0 data\n input1 batchnorm0_gamma\n input2 batchnorm0_beta\n input3 batchnorm0_moving_mean\n input4 batchnorm0_moving_var\n output0 batchnorm0 -->
<g id="edge5" class="edge"><title>batchnorm0_moving_mean0&#45;&gt;batchnorm0/BatchNormalization (op#0)\n input0 data\n input1 batchnorm0_gamma\n input2 batchnorm0_beta\n input3 batchnorm0_moving_mean\n input4 batchnorm0_moving_var\n output0 batchnorm0</title>
<path fill="none" stroke="black" d="M999.616,-1437.81C982.313,-1429.16 960.194,-1418.1 937.365,-1406.68"/>
<polygon fill="black" stroke="black" points="938.756,-1403.46 928.246,-1402.12 935.625,-1409.73 938.756,-1403.46"/>
</g>
<!-- batchnorm0_moving_var0 -->
<g id="node7" class="node"><title>batchnorm0_moving_var0</title>
<polygon fill="none" stroke="black" points="1392.5,-1448.54 1392.5,-1463.46 1327.77,-1474 1236.23,-1474 1171.5,-1463.46 1171.5,-1448.54 1236.23,-1438 1327.77,-1438 1392.5,-1448.54"/>
<text text-anchor="middle" x="1282" y="-1452.3" font-family="Times New Roman,serif" font-size="14.00">batchnorm0_moving_var</text>
</g>
<!-- batchnorm0_moving_var0&#45;&gt;batchnorm0/BatchNormalization (op#0)\n input0 data\n input1 batchnorm0_gamma\n input2 batchnorm0_beta\n input3 batchnorm0_moving_mean\n input4 batchnorm0_moving_var\n output0 batchnorm0 -->
<g id="edge6" class="edge"><title>batchnorm0_moving_var0&#45;&gt;batchnorm0/BatchNormalization (op#0)\n input0 data\n input1 batchnorm0_gamma\n input2 batchnorm0_beta\n input3 batchnorm0_moving_mean\n input4 batchnorm0_moving_var\n output0 batchnorm0</title>
<path fill="none" stroke="black" d="M1220.25,-1440.59C1150.84,-1424.4 1036.17,-1397.64 946.823,-1376.79"/>
<polygon fill="black" stroke="black" points="947.419,-1373.34 936.885,-1374.47 945.828,-1380.15 947.419,-1373.34"/>
</g>
<!-- fullyconnected00 -->
<g id="node9" class="node"><title>fullyconnected00</title>
<polygon fill="none" stroke="black" points="719,-1036.54 719,-1051.46 675.652,-1062 614.348,-1062 571,-1051.46 571,-1036.54 614.348,-1026 675.652,-1026 719,-1036.54"/>
<text text-anchor="middle" x="645" y="-1040.3" font-family="Times New Roman,serif" font-size="14.00">fullyconnected0</text>
</g>
<!-- fullyconnected0/Gemm (op#1)\n input0 batchnorm0\n input1 fullyconnected0_weight\n input2 fullyconnected0_bias\n output0 fullyconnected0&#45;&gt;fullyconnected00 -->
<g id="edge8" class="edge"><title>fullyconnected0/Gemm (op#1)\n input0 batchnorm0\n input1 fullyconnected0_weight\n input2 fullyconnected0_bias\n output0 fullyconnected0&#45;&gt;fullyconnected00</title>
<path fill="none" stroke="black" d="M645,-1097.76C645,-1089.24 645,-1080.44 645,-1072.53"/>
<polygon fill="black" stroke="black" points="648.5,-1072.41 645,-1062.41 641.5,-1072.41 648.5,-1072.41"/>
</g>
<!-- activation0/Relu (op#2)\n input0 fullyconnected0\n output0 activation0 -->
<g id="node12" class="node"><title>activation0/Relu (op#2)\n input0 fullyconnected0\n output0 activation0</title>
<g id="a_node12"><a xlink:href="javascript:alert('')" xlink:title="activation0/Relu (op#2)\n input0 fullyconnected0\n output0 activation0">
<polygon fill="#0f9d58" stroke="#0f9d58" points="719,-990 571,-990 571,-937 719,-937 719,-990"/>
<text text-anchor="middle" x="645" y="-974.8" font-family="Times New Roman,serif" font-size="14.00" fill="#ffffff">activation0/Relu (op#2)</text>
<text text-anchor="middle" x="645" y="-959.8" font-family="Times New Roman,serif" font-size="14.00" fill="#ffffff"> input0 fullyconnected0</text>
<text text-anchor="middle" x="645" y="-944.8" font-family="Times New Roman,serif" font-size="14.00" fill="#ffffff"> output0 activation0</text>
</a>
</g>
</g>
<!-- fullyconnected00&#45;&gt;activation0/Relu (op#2)\n input0 fullyconnected0\n output0 activation0 -->
<g id="edge11" class="edge"><title>fullyconnected00&#45;&gt;activation0/Relu (op#2)\n input0 fullyconnected0\n output0 activation0</title>
<path fill="none" stroke="black" d="M645,-1025.97C645,-1018.45 645,-1009.31 645,-1000.4"/>
<polygon fill="black" stroke="black" points="648.5,-1000.16 645,-990.156 641.5,-1000.16 648.5,-1000.16"/>
</g>
<!-- fullyconnected0_weight0 -->
<g id="node10" class="node"><title>fullyconnected0_weight0</title>
<polygon fill="none" stroke="black" points="532,-1227.54 532,-1242.46 470.492,-1253 383.508,-1253 322,-1242.46 322,-1227.54 383.508,-1217 470.492,-1217 532,-1227.54"/>
<text text-anchor="middle" x="427" y="-1231.3" font-family="Times New Roman,serif" font-size="14.00">fullyconnected0_weight</text>
</g>
<!-- fullyconnected0_weight0&#45;&gt;fullyconnected0/Gemm (op#1)\n input0 batchnorm0\n input1 fullyconnected0_weight\n input2 fullyconnected0_bias\n output0 fullyconnected0 -->
<g id="edge9" class="edge"><title>fullyconnected0_weight0&#45;&gt;fullyconnected0/Gemm (op#1)\n input0 batchnorm0\n input1 fullyconnected0_weight\n input2 fullyconnected0_bias\n output0 fullyconnected0</title>
<path fill="none" stroke="black" d="M466.731,-1216.96C487.714,-1207.96 514.544,-1196.45 540.983,-1185.11"/>
<polygon fill="black" stroke="black" points="542.497,-1188.27 550.308,-1181.11 539.738,-1181.84 542.497,-1188.27"/>
</g>
<!-- fullyconnected0_bias0 -->
<g id="node11" class="node"><title>fullyconnected0_bias0</title>
<polygon fill="none" stroke="black" points="740,-1227.54 740,-1242.46 684.35,-1253 605.65,-1253 550,-1242.46 550,-1227.54 605.65,-1217 684.35,-1217 740,-1227.54"/>
<text text-anchor="middle" x="645" y="-1231.3" font-family="Times New Roman,serif" font-size="14.00">fullyconnected0_bias</text>
</g>
<!-- fullyconnected0_bias0&#45;&gt;fullyconnected0/Gemm (op#1)\n input0 batchnorm0\n input1 fullyconnected0_weight\n input2 fullyconnected0_bias\n output0 fullyconnected0 -->
<g id="edge10" class="edge"><title>fullyconnected0_bias0&#45;&gt;fullyconnected0/Gemm (op#1)\n input0 batchnorm0\n input1 fullyconnected0_weight\n input2 fullyconnected0_bias\n output0 fullyconnected0</title>
<path fill="none" stroke="black" d="M645,-1216.85C645,-1209.49 645,-1200.48 645,-1191.25"/>
<polygon fill="black" stroke="black" points="648.5,-1191.23 645,-1181.23 641.5,-1191.23 648.5,-1191.23"/>
</g>
<!-- activation00 -->
<g id="node13" class="node"><title>activation00</title>
<polygon fill="none" stroke="black" points="699.338,-875.544 699.338,-890.456 667.508,-901 622.492,-901 590.662,-890.456 590.662,-875.544 622.492,-865 667.508,-865 699.338,-875.544"/>
<text text-anchor="middle" x="645" y="-879.3" font-family="Times New Roman,serif" font-size="14.00">activation0</text>
</g>
<!-- activation0/Relu (op#2)\n input0 fullyconnected0\n output0 activation0&#45;&gt;activation00 -->
<g id="edge12" class="edge"><title>activation0/Relu (op#2)\n input0 fullyconnected0\n output0 activation0&#45;&gt;activation00</title>
<path fill="none" stroke="black" d="M645,-936.796C645,-928.713 645,-919.755 645,-911.549"/>
<polygon fill="black" stroke="black" points="648.5,-911.33 645,-901.33 641.5,-911.33 648.5,-911.33"/>
</g>
<!-- dropout0/Dropout (op#3)\n input0 activation0\n output0 dropout0 -->
<g id="node14" class="node"><title>dropout0/Dropout (op#3)\n input0 activation0\n output0 dropout0</title>
<g id="a_node14"><a xlink:href="javascript:alert('')" xlink:title="dropout0/Dropout (op#3)\n input0 activation0\n output0 dropout0">
<polygon fill="#0f9d58" stroke="#0f9d58" points="725.5,-829 564.5,-829 564.5,-776 725.5,-776 725.5,-829"/>
<text text-anchor="middle" x="645" y="-813.8" font-family="Times New Roman,serif" font-size="14.00" fill="#ffffff">dropout0/Dropout (op#3)</text>
<text text-anchor="middle" x="645" y="-798.8" font-family="Times New Roman,serif" font-size="14.00" fill="#ffffff"> input0 activation0</text>
<text text-anchor="middle" x="645" y="-783.8" font-family="Times New Roman,serif" font-size="14.00" fill="#ffffff"> output0 dropout0</text>
</a>
</g>
</g>
<!-- activation00&#45;&gt;dropout0/Dropout (op#3)\n input0 activation0\n output0 dropout0 -->
<g id="edge13" class="edge"><title>activation00&#45;&gt;dropout0/Dropout (op#3)\n input0 activation0\n output0 dropout0</title>
<path fill="none" stroke="black" d="M645,-864.967C645,-857.447 645,-848.306 645,-839.397"/>
<polygon fill="black" stroke="black" points="648.5,-839.156 645,-829.156 641.5,-839.156 648.5,-839.156"/>
</g>
<!-- dropout00 -->
<g id="node15" class="node"><title>dropout00</title>
<polygon fill="none" stroke="black" points="693,-714.544 693,-729.456 664.882,-740 625.118,-740 597,-729.456 597,-714.544 625.118,-704 664.882,-704 693,-714.544"/>
<text text-anchor="middle" x="645" y="-718.3" font-family="Times New Roman,serif" font-size="14.00">dropout0</text>
</g>
<!-- dropout0/Dropout (op#3)\n input0 activation0\n output0 dropout0&#45;&gt;dropout00 -->
<g id="edge14" class="edge"><title>dropout0/Dropout (op#3)\n input0 activation0\n output0 dropout0&#45;&gt;dropout00</title>
<path fill="none" stroke="black" d="M645,-775.796C645,-767.713 645,-758.755 645,-750.549"/>
<polygon fill="black" stroke="black" points="648.5,-750.33 645,-740.33 641.5,-750.33 648.5,-750.33"/>
</g>
<!-- fullyconnected1/Gemm (op#4)\n input0 dropout0\n input1 fullyconnected1_weight\n input2 fullyconnected1_bias\n output0 fullyconnected1 -->
<g id="node16" class="node"><title>fullyconnected1/Gemm (op#4)\n input0 dropout0\n input1 fullyconnected1_weight\n input2 fullyconnected1_bias\n output0 fullyconnected1</title>
<g id="a_node16"><a xlink:href="javascript:alert('')" xlink:title="fullyconnected1/Gemm (op#4)\n input0 dropout0\n input1 fullyconnected1_weight\n input2 fullyconnected1_bias\n output0 fullyconnected1">
<polygon fill="#0f9d58" stroke="#0f9d58" points="579.5,-668 388.5,-668 388.5,-585 579.5,-585 579.5,-668"/>
<text text-anchor="middle" x="484" y="-652.8" font-family="Times New Roman,serif" font-size="14.00" fill="#ffffff">fullyconnected1/Gemm (op#4)</text>
<text text-anchor="middle" x="484" y="-637.8" font-family="Times New Roman,serif" font-size="14.00" fill="#ffffff"> input0 dropout0</text>
<text text-anchor="middle" x="484" y="-622.8" font-family="Times New Roman,serif" font-size="14.00" fill="#ffffff"> input1 fullyconnected1_weight</text>
<text text-anchor="middle" x="484" y="-607.8" font-family="Times New Roman,serif" font-size="14.00" fill="#ffffff"> input2 fullyconnected1_bias</text>
<text text-anchor="middle" x="484" y="-592.8" font-family="Times New Roman,serif" font-size="14.00" fill="#ffffff"> output0 fullyconnected1</text>
</a>
</g>
</g>
<!-- dropout00&#45;&gt;fullyconnected1/Gemm (op#4)\n input0 dropout0\n input1 fullyconnected1_weight\n input2 fullyconnected1_bias\n output0 fullyconnected1 -->
<g id="edge15" class="edge"><title>dropout00&#45;&gt;fullyconnected1/Gemm (op#4)\n input0 dropout0\n input1 fullyconnected1_weight\n input2 fullyconnected1_bias\n output0 fullyconnected1</title>
<path fill="none" stroke="black" d="M619.133,-705.978C603.655,-696.989 583.075,-685.038 562.654,-673.178"/>
<polygon fill="black" stroke="black" points="564.333,-670.105 553.927,-668.11 560.817,-676.159 564.333,-670.105"/>
</g>
<!-- fullyconnected10 -->
<g id="node17" class="node"><title>fullyconnected10</title>
<polygon fill="none" stroke="black" points="558,-523.544 558,-538.456 514.652,-549 453.348,-549 410,-538.456 410,-523.544 453.348,-513 514.652,-513 558,-523.544"/>
<text text-anchor="middle" x="484" y="-527.3" font-family="Times New Roman,serif" font-size="14.00">fullyconnected1</text>
</g>
<!-- fullyconnected1/Gemm (op#4)\n input0 dropout0\n input1 fullyconnected1_weight\n input2 fullyconnected1_bias\n output0 fullyconnected1&#45;&gt;fullyconnected10 -->
<g id="edge16" class="edge"><title>fullyconnected1/Gemm (op#4)\n input0 dropout0\n input1 fullyconnected1_weight\n input2 fullyconnected1_bias\n output0 fullyconnected1&#45;&gt;fullyconnected10</title>
<path fill="none" stroke="black" d="M484,-584.762C484,-576.236 484,-567.438 484,-559.53"/>
<polygon fill="black" stroke="black" points="487.5,-559.405 484,-549.405 480.5,-559.405 487.5,-559.405"/>
</g>
<!-- activation1/Relu (op#5)\n input0 fullyconnected1\n output0 activation1 -->
<g id="node20" class="node"><title>activation1/Relu (op#5)\n input0 fullyconnected1\n output0 activation1</title>
<g id="a_node20"><a xlink:href="javascript:alert('')" xlink:title="activation1/Relu (op#5)\n input0 fullyconnected1\n output0 activation1">
<polygon fill="#0f9d58" stroke="#0f9d58" points="558,-477 410,-477 410,-424 558,-424 558,-477"/>
<text text-anchor="middle" x="484" y="-461.8" font-family="Times New Roman,serif" font-size="14.00" fill="#ffffff">activation1/Relu (op#5)</text>
<text text-anchor="middle" x="484" y="-446.8" font-family="Times New Roman,serif" font-size="14.00" fill="#ffffff"> input0 fullyconnected1</text>
<text text-anchor="middle" x="484" y="-431.8" font-family="Times New Roman,serif" font-size="14.00" fill="#ffffff"> output0 activation1</text>
</a>
</g>
</g>
<!-- fullyconnected10&#45;&gt;activation1/Relu (op#5)\n input0 fullyconnected1\n output0 activation1 -->
<g id="edge19" class="edge"><title>fullyconnected10&#45;&gt;activation1/Relu (op#5)\n input0 fullyconnected1\n output0 activation1</title>
<path fill="none" stroke="black" d="M484,-512.967C484,-505.447 484,-496.306 484,-487.397"/>
<polygon fill="black" stroke="black" points="487.5,-487.156 484,-477.156 480.5,-487.156 487.5,-487.156"/>
</g>
<!-- fullyconnected1_weight0 -->
<g id="node18" class="node"><title>fullyconnected1_weight0</title>
<polygon fill="none" stroke="black" points="371,-714.544 371,-729.456 309.492,-740 222.508,-740 161,-729.456 161,-714.544 222.508,-704 309.492,-704 371,-714.544"/>
<text text-anchor="middle" x="266" y="-718.3" font-family="Times New Roman,serif" font-size="14.00">fullyconnected1_weight</text>
</g>
<!-- fullyconnected1_weight0&#45;&gt;fullyconnected1/Gemm (op#4)\n input0 dropout0\n input1 fullyconnected1_weight\n input2 fullyconnected1_bias\n output0 fullyconnected1 -->
<g id="edge17" class="edge"><title>fullyconnected1_weight0&#45;&gt;fullyconnected1/Gemm (op#4)\n input0 dropout0\n input1 fullyconnected1_weight\n input2 fullyconnected1_bias\n output0 fullyconnected1</title>
<path fill="none" stroke="black" d="M305.731,-703.959C326.714,-694.96 353.544,-683.452 379.983,-672.113"/>
<polygon fill="black" stroke="black" points="381.497,-675.272 389.308,-668.113 378.738,-668.839 381.497,-675.272"/>
</g>
<!-- fullyconnected1_bias0 -->
<g id="node19" class="node"><title>fullyconnected1_bias0</title>
<polygon fill="none" stroke="black" points="579,-714.544 579,-729.456 523.35,-740 444.65,-740 389,-729.456 389,-714.544 444.65,-704 523.35,-704 579,-714.544"/>
<text text-anchor="middle" x="484" y="-718.3" font-family="Times New Roman,serif" font-size="14.00">fullyconnected1_bias</text>
</g>
<!-- fullyconnected1_bias0&#45;&gt;fullyconnected1/Gemm (op#4)\n input0 dropout0\n input1 fullyconnected1_weight\n input2 fullyconnected1_bias\n output0 fullyconnected1 -->
<g id="edge18" class="edge"><title>fullyconnected1_bias0&#45;&gt;fullyconnected1/Gemm (op#4)\n input0 dropout0\n input1 fullyconnected1_weight\n input2 fullyconnected1_bias\n output0 fullyconnected1</title>
<path fill="none" stroke="black" d="M484,-703.851C484,-696.495 484,-687.477 484,-678.251"/>
<polygon fill="black" stroke="black" points="487.5,-678.226 484,-668.226 480.5,-678.226 487.5,-678.226"/>
</g>
<!-- activation10 -->
<g id="node21" class="node"><title>activation10</title>
<polygon fill="none" stroke="black" points="538.338,-362.544 538.338,-377.456 506.508,-388 461.492,-388 429.662,-377.456 429.662,-362.544 461.492,-352 506.508,-352 538.338,-362.544"/>
<text text-anchor="middle" x="484" y="-366.3" font-family="Times New Roman,serif" font-size="14.00">activation1</text>
</g>
<!-- activation1/Relu (op#5)\n input0 fullyconnected1\n output0 activation1&#45;&gt;activation10 -->
<g id="edge20" class="edge"><title>activation1/Relu (op#5)\n input0 fullyconnected1\n output0 activation1&#45;&gt;activation10</title>
<path fill="none" stroke="black" d="M484,-423.796C484,-415.713 484,-406.755 484,-398.549"/>
<polygon fill="black" stroke="black" points="487.5,-398.33 484,-388.33 480.5,-398.33 487.5,-398.33"/>
</g>
<!-- dropout1/Dropout (op#6)\n input0 activation1\n output0 dropout1 -->
<g id="node22" class="node"><title>dropout1/Dropout (op#6)\n input0 activation1\n output0 dropout1</title>
<g id="a_node22"><a xlink:href="javascript:alert('')" xlink:title="dropout1/Dropout (op#6)\n input0 activation1\n output0 dropout1">
<polygon fill="#0f9d58" stroke="#0f9d58" points="564.5,-316 403.5,-316 403.5,-263 564.5,-263 564.5,-316"/>
<text text-anchor="middle" x="484" y="-300.8" font-family="Times New Roman,serif" font-size="14.00" fill="#ffffff">dropout1/Dropout (op#6)</text>
<text text-anchor="middle" x="484" y="-285.8" font-family="Times New Roman,serif" font-size="14.00" fill="#ffffff"> input0 activation1</text>
<text text-anchor="middle" x="484" y="-270.8" font-family="Times New Roman,serif" font-size="14.00" fill="#ffffff"> output0 dropout1</text>
</a>
</g>
</g>
<!-- activation10&#45;&gt;dropout1/Dropout (op#6)\n input0 activation1\n output0 dropout1 -->
<g id="edge21" class="edge"><title>activation10&#45;&gt;dropout1/Dropout (op#6)\n input0 activation1\n output0 dropout1</title>
<path fill="none" stroke="black" d="M484,-351.967C484,-344.447 484,-335.306 484,-326.397"/>
<polygon fill="black" stroke="black" points="487.5,-326.156 484,-316.156 480.5,-326.156 487.5,-326.156"/>
</g>
<!-- dropout10 -->
<g id="node23" class="node"><title>dropout10</title>
<polygon fill="none" stroke="black" points="532,-201.544 532,-216.456 503.882,-227 464.118,-227 436,-216.456 436,-201.544 464.118,-191 503.882,-191 532,-201.544"/>
<text text-anchor="middle" x="484" y="-205.3" font-family="Times New Roman,serif" font-size="14.00">dropout1</text>
</g>
<!-- dropout1/Dropout (op#6)\n input0 activation1\n output0 dropout1&#45;&gt;dropout10 -->
<g id="edge22" class="edge"><title>dropout1/Dropout (op#6)\n input0 activation1\n output0 dropout1&#45;&gt;dropout10</title>
<path fill="none" stroke="black" d="M484,-262.796C484,-254.713 484,-245.755 484,-237.549"/>
<polygon fill="black" stroke="black" points="487.5,-237.33 484,-227.33 480.5,-237.33 487.5,-237.33"/>
</g>
<!-- fullyconnected2/Gemm (op#7)\n input0 dropout1\n input1 fullyconnected2_weight\n input2 fullyconnected2_bias\n output0 fullyconnected2 -->
<g id="node24" class="node"><title>fullyconnected2/Gemm (op#7)\n input0 dropout1\n input1 fullyconnected2_weight\n input2 fullyconnected2_bias\n output0 fullyconnected2</title>
<g id="a_node24"><a xlink:href="javascript:alert('')" xlink:title="fullyconnected2/Gemm (op#7)\n input0 dropout1\n input1 fullyconnected2_weight\n input2 fullyconnected2_bias\n output0 fullyconnected2">
<polygon fill="#0f9d58" stroke="#0f9d58" points="418.5,-155 227.5,-155 227.5,-72 418.5,-72 418.5,-155"/>
<text text-anchor="middle" x="323" y="-139.8" font-family="Times New Roman,serif" font-size="14.00" fill="#ffffff">fullyconnected2/Gemm (op#7)</text>
<text text-anchor="middle" x="323" y="-124.8" font-family="Times New Roman,serif" font-size="14.00" fill="#ffffff"> input0 dropout1</text>
<text text-anchor="middle" x="323" y="-109.8" font-family="Times New Roman,serif" font-size="14.00" fill="#ffffff"> input1 fullyconnected2_weight</text>
<text text-anchor="middle" x="323" y="-94.8" font-family="Times New Roman,serif" font-size="14.00" fill="#ffffff"> input2 fullyconnected2_bias</text>
<text text-anchor="middle" x="323" y="-79.8" font-family="Times New Roman,serif" font-size="14.00" fill="#ffffff"> output0 fullyconnected2</text>
</a>
</g>
</g>
<!-- dropout10&#45;&gt;fullyconnected2/Gemm (op#7)\n input0 dropout1\n input1 fullyconnected2_weight\n input2 fullyconnected2_bias\n output0 fullyconnected2 -->
<g id="edge23" class="edge"><title>dropout10&#45;&gt;fullyconnected2/Gemm (op#7)\n input0 dropout1\n input1 fullyconnected2_weight\n input2 fullyconnected2_bias\n output0 fullyconnected2</title>
<path fill="none" stroke="black" d="M458.133,-192.978C442.655,-183.989 422.075,-172.038 401.654,-160.178"/>
<polygon fill="black" stroke="black" points="403.333,-157.105 392.927,-155.11 399.817,-163.159 403.333,-157.105"/>
</g>
<!-- fullyconnected20 -->
<g id="node25" class="node"><title>fullyconnected20</title>
<polygon fill="none" stroke="black" points="397,-10.5442 397,-25.4558 353.652,-36 292.348,-36 249,-25.4558 249,-10.5442 292.348,-3.55271e-015 353.652,-0 397,-10.5442"/>
<text text-anchor="middle" x="323" y="-14.3" font-family="Times New Roman,serif" font-size="14.00">fullyconnected2</text>
</g>
<!-- fullyconnected2/Gemm (op#7)\n input0 dropout1\n input1 fullyconnected2_weight\n input2 fullyconnected2_bias\n output0 fullyconnected2&#45;&gt;fullyconnected20 -->
<g id="edge24" class="edge"><title>fullyconnected2/Gemm (op#7)\n input0 dropout1\n input1 fullyconnected2_weight\n input2 fullyconnected2_bias\n output0 fullyconnected2&#45;&gt;fullyconnected20</title>
<path fill="none" stroke="black" d="M323,-71.7615C323,-63.2356 323,-54.4385 323,-46.5299"/>
<polygon fill="black" stroke="black" points="326.5,-46.4051 323,-36.4051 319.5,-46.4051 326.5,-46.4051"/>
</g>
<!-- fullyconnected2_weight0 -->
<g id="node26" class="node"><title>fullyconnected2_weight0</title>
<polygon fill="none" stroke="black" points="210,-201.544 210,-216.456 148.492,-227 61.5076,-227 2.84217e-014,-216.456 1.42109e-014,-201.544 61.5076,-191 148.492,-191 210,-201.544"/>
<text text-anchor="middle" x="105" y="-205.3" font-family="Times New Roman,serif" font-size="14.00">fullyconnected2_weight</text>
</g>
<!-- fullyconnected2_weight0&#45;&gt;fullyconnected2/Gemm (op#7)\n input0 dropout1\n input1 fullyconnected2_weight\n input2 fullyconnected2_bias\n output0 fullyconnected2 -->
<g id="edge25" class="edge"><title>fullyconnected2_weight0&#45;&gt;fullyconnected2/Gemm (op#7)\n input0 dropout1\n input1 fullyconnected2_weight\n input2 fullyconnected2_bias\n output0 fullyconnected2</title>
<path fill="none" stroke="black" d="M144.731,-190.959C165.714,-181.96 192.544,-170.452 218.983,-159.113"/>
<polygon fill="black" stroke="black" points="220.497,-162.272 228.308,-155.113 217.738,-155.839 220.497,-162.272"/>
</g>
<!-- fullyconnected2_bias0 -->
<g id="node27" class="node"><title>fullyconnected2_bias0</title>
<polygon fill="none" stroke="black" points="418,-201.544 418,-216.456 362.35,-227 283.65,-227 228,-216.456 228,-201.544 283.65,-191 362.35,-191 418,-201.544"/>
<text text-anchor="middle" x="323" y="-205.3" font-family="Times New Roman,serif" font-size="14.00">fullyconnected2_bias</text>
</g>
<!-- fullyconnected2_bias0&#45;&gt;fullyconnected2/Gemm (op#7)\n input0 dropout1\n input1 fullyconnected2_weight\n input2 fullyconnected2_bias\n output0 fullyconnected2 -->
<g id="edge26" class="edge"><title>fullyconnected2_bias0&#45;&gt;fullyconnected2/Gemm (op#7)\n input0 dropout1\n input1 fullyconnected2_weight\n input2 fullyconnected2_bias\n output0 fullyconnected2</title>
<path fill="none" stroke="black" d="M323,-190.851C323,-183.495 323,-174.477 323,-165.251"/>
<polygon fill="black" stroke="black" points="326.5,-165.226 323,-155.226 319.5,-165.226 326.5,-165.226"/>
</g>
</g>
</svg>
